ffmpeg started on 2016-11-23 at 03:01:49
Report written to "Output/NVENCh264/results/ffmpeg/Tsintelmedium5000k.log"
Command line:
Tools/ffmpeg/ffmpeg -i Output/NVENCh264/encoded/sintelmedium5000k.mkv -c:v rawvideo -pix_fmt yuv420p Output/NVENCh264/transcoded/sintelmedium5000k.yuv
ffmpeg version N-82227-gdb23fde Copyright (c) 2000-2016 the FFmpeg developers
  built with gcc 5.4.0 (Ubuntu 5.4.0-6ubuntu1~16.04.2) 20160609
  configuration: --prefix=/home/jaroslav/ffmpeg_build --pkg-config-flags=--static --extra-cflags=-I/home/jaroslav/ffmpeg_build/include --extra-ldflags=-L/home/jaroslav/ffmpeg_build/lib --bindir=/home/jaroslav/bin --enable-gpl --enable-libass --enable-libfdk-aac --enable-libfreetype --enable-libmp3lame --enable-libopus --enable-libtheora --enable-libvorbis --enable-libvpx --enable-libx264 --enable-libx265 --enable-nvenc --enable-libmfx --enable-libxvid --enable-libgsm --enable-libopencore-amrnb --enable-version3 --enable-nonfree
  libavutil      55. 35.100 / 55. 35.100
  libavcodec     57. 66.101 / 57. 66.101
  libavformat    57. 57.100 / 57. 57.100
  libavdevice    57.  2.100 / 57.  2.100
  libavfilter     6. 66.100 /  6. 66.100
  libswscale      4.  3.100 /  4.  3.100
  libswresample   2.  4.100 /  2.  4.100
  libpostproc    54.  2.100 / 54.  2.100
Input #0, matroska,webm, from 'Output/NVENCh264/encoded/sintelmedium5000k.mkv':
  Metadata:
    ENCODER         : Lavf57.57.100
  Duration: 00:00:20.83, start: 0.000000, bitrate: 4504 kb/s
    Stream #0:0: Video: h264 (Main), yuv420p(progressive), 4096x1744 [SAR 1:1 DAR 256:109], 24 fps, 24 tbr, 1k tbn, 48 tbc (default)
    Metadata:
      ENCODER         : Lavc57.66.101 h264_nvenc
      DURATION        : 00:00:20.834000000
Output #0, rawvideo, to 'Output/NVENCh264/transcoded/sintelmedium5000k.yuv':
  Metadata:
    encoder         : Lavf57.57.100
    Stream #0:0: Video: rawvideo (I420 / 0x30323449), yuv420p, 4096x1744 [SAR 1:1 DAR 256:109], q=2-31, 200 kb/s, 24 fps, 24 tbn, 24 tbc (default)
    Metadata:
      DURATION        : 00:00:20.834000000
      encoder         : Lavc57.66.101 rawvideo
Stream mapping:
  Stream #0:0 -> #0:0 (h264 (native) -> rawvideo (native))
Press [q] to stop, [?] for help
frame=   20 fps=0.0 q=-0.0 size=  209280kB time=00:00:00.83 bitrate=2057306.9kbits/s speed=1.61x    frame=   41 fps= 39 q=-0.0 size=  429024kB time=00:00:01.70 bitrate=2057306.5kbits/s speed=1.64x    frame=   62 fps= 40 q=-0.0 size=  648768kB time=00:00:02.58 bitrate=2057306.4kbits/s speed=1.65x    frame=   83 fps= 40 q=-0.0 size=  868512kB time=00:00:03.45 bitrate=2057306.3kbits/s speed=1.66x    frame=  104 fps= 40 q=-0.0 size= 1088256kB time=00:00:04.33 bitrate=2057306.3kbits/s speed=1.66x    frame=  125 fps= 40 q=-0.0 size= 1308000kB time=00:00:05.20 bitrate=2057306.2kbits/s speed=1.66x    frame=  146 fps= 40 q=-0.0 size= 1527744kB time=00:00:06.08 bitrate=2057306.2kbits/s speed=1.66x    frame=  166 fps= 40 q=-0.0 size= 1737024kB time=00:00:06.91 bitrate=2057306.0kbits/s speed=1.66x    frame=  187 fps= 40 q=-0.0 size= 1956768kB time=00:00:07.79 bitrate=2057306.0kbits/s speed=1.66x    frame=  208 fps= 40 q=-0.0 size= 2176512kB time=00:00:08.66 bitrate=2057306.0kbits/s speed=1.66x    frame=  229 fps= 40 q=-0.0 size= 2396256kB time=00:00:09.54 bitrate=2057306.0kbits/s speed=1.66x    frame=  249 fps= 40 q=-0.0 size= 2605536kB time=00:00:10.37 bitrate=2057306.1kbits/s speed=1.66x    frame=  270 fps= 40 q=-0.0 size= 2825280kB time=00:00:11.25 bitrate=2057306.1kbits/s speed=1.66x    frame=  291 fps= 40 q=-0.0 size= 3045024kB time=00:00:12.12 bitrate=2057306.1kbits/s speed=1.66x    frame=  312 fps= 40 q=-0.0 size= 3264768kB time=00:00:13.00 bitrate=2057306.1kbits/s speed=1.66x    frame=  332 fps= 40 q=-0.0 size= 3474048kB time=00:00:13.83 bitrate=2057306.2kbits/s speed=1.66x    frame=  352 fps= 40 q=-0.0 size= 3683328kB time=00:00:14.66 bitrate=2057306.1kbits/s speed=1.66x    frame=  372 fps= 40 q=-0.0 size= 3892608kB time=00:00:15.50 bitrate=2057306.1kbits/s speed=1.66x    frame=  392 fps= 40 q=-0.0 size= 4101888kB time=00:00:16.33 bitrate=2057306.2kbits/s speed=1.66x    frame=  413 fps= 40 q=-0.0 size= 4321632kB time=00:00:17.20 bitrate=2057306.2kbits/s speed=1.66x    frame=  434 fps= 39 q=-0.0 size= 4541376kB time=00:00:18.08 bitrate=2057306.1kbits/s speed=1.63x    frame=  454 fps= 39 q=-0.0 size= 4750656kB time=00:00:18.91 bitrate=2057306.1kbits/s speed=1.63x    frame=  474 fps= 39 q=-0.0 size= 4959936kB time=00:00:19.75 bitrate=2057306.1kbits/s speed=1.63x    frame=  494 fps= 39 q=-0.0 size= 5169216kB time=00:00:20.58 bitrate=2057306.1kbits/s speed=1.63x    frame=  500 fps= 39 q=-0.0 Lsize= 5232000kB time=00:00:20.83 bitrate=2057306.1kbits/s speed=1.63x    
video:5232000kB audio:0kB subtitle:0kB other streams:0kB global headers:0kB muxing overhead: 0.000000%
